# File created by Blade
# Date/Time:  Mon Sep 22 19:00:17 2014
# Frame Rate: 120.000 fps
#------------------------------------------------------
:FULLY-SPECIFIED
:DEGREES
3365
root -0.623280 32.854540 -3.533140 41.312489 1.105753 1.003122
Spine -50.092353 -18.654266 15.302907
Head 10.120891 -1.605596 -11.335680
LeftShoulder -16.690269 42.634418 4.943959
LeftArm 61.742724 32.273741 -58.804368
LeftForeArm 10.154763 -0.000000 11.917316
LeftHand -19.288663 -0.000000 -6.102240
LeftHandThumb1 -26.253704 0.000000 33.147579
RightShoulder -37.546823 -27.065338 -24.965563
RightArm -238.800464 50.477437 -183.790007
RightForeArm 86.470444 0.000000 108.810182
RightHand 32.831110 -0.000000 -29.356661
RightHandThumb1 -24.326973 -0.000000 -32.862282
LeftUpLeg -34.893382 7.054430 -2.756520
LeftLeg -1.508483 -0.000000 0.000000
LeftFoot -1.034927 -2.417890 -4.335261
LeftToeBase 2.363376 -0.000000 -0.000000
RightUpLeg -35.895506 -9.838952 4.371309
RightLeg -1.495693 -0.000000 0.000000
RightFoot -6.561809 -5.671570 20.369639
RightToeBase 16.252145 -0.000000 -0.000000
3366
root -0.618466 32.852558 -3.518750 41.268537 1.190861 1.018178
Spine -50.127549 -18.569441 15.215016
Head 10.075026 -1.618255 -11.401526
LeftShoulder -16.631231 42.655413 4.981919
LeftArm 61.817469 32.296110 -58.743701
LeftForeArm 10.002579 -0.000000 11.861336
LeftHand -19.117223 -0.000000 -6.122590
LeftHandThumb1 -26.253704 0.000000 33.147579
RightShoulder -37.516858 -27.106015 -24.797416
RightArm -238.827507 50.503065 -183.903739
RightForeArm 86.574385 -0.000000 108.847937
RightHand 32.866897 -0.000000 -29.415679
RightHandThumb1 -24.326973 -0.000000 -32.862282
LeftUpLeg -34.845559 6.956979 -2.697792
LeftLeg -1.468054 -0.000000 0.000000
LeftFoot -1.085945 -2.380000 -4.316457
LeftToeBase 2.387894 -0.000000 -0.000000
RightUpLeg -35.861538 -9.985666 4.453099
RightLeg -1.432639 -0.000000 0.000000
RightFoot -6.611719 -5.607963 20.304580
RightToeBase 16.277309 -0.000000 -0.000000
3367
root -0.614179 32.850306 -3.506168 41.218236 1.269008 1.020965
Spine -50.146523 -18.468004 15.148518
Head 10.022128 -1.625392 -11.525003
LeftShoulder -16.633515 42.641542 4.950372
LeftArm 61.951313 32.338037 -58.569091
LeftForeArm 10.021390 -0.000000 11.755529
LeftHand -19.169343 -0.000000 -6.010720
LeftHandThumb1 -26.253704 0.000000 33.147579
RightShoulder -37.749888 -27.501239 -24.386479
RightArm -239.136049 50.089906 -184.297379
RightForeArm 86.430753 -0.000000 108.877406
RightHand 32.963033 -0.000000 -28.999787
RightHandThumb1 -24.326973 -0.000000 -32.862282
LeftUpLeg -34.808983 6.888596 -2.643537
LeftLeg -1.400923 -0.000000 0.000000
LeftFoot -1.139173 -2.372462 -4.301852
LeftToeBase 2.323378 -0.000000 -0.000000
RightUpLeg -35.817361 -10.053783 4.487717
RightLeg -1.367411 -0.000000 0.000000
RightFoot -6.672796 -5.614891 20.334356
RightToeBase 16.262232 -0.000000 -0.000000
3368
root -0.610099 32.847517 -3.494134 41.169183 1.352008 1.013185
Spine -50.152215 -18.339235 15.068665
Head 9.950712 -1.646824 -11.641076
LeftShoulder -16.621492 42.627537 4.924767
LeftArm 62.010925 32.355348 -58.471170
LeftForeArm 9.957941 0.000000 11.752911
LeftHand -19.284374 -0.000000 -5.863480
LeftHandThumb1 -26.253704 0.000000 33.147579
RightShoulder -37.811177 -27.676743 -24.229417
RightArm -239.233675 50.082989 -184.567661
RightForeArm 86.367523 0.000000 108.975005
RightHand 32.923917 -0.000000 -29.058693
RightHandThumb1 -24.326973 -0.000000 -32.862282
LeftUpLeg -34.773267 6.810504 -2.567872
LeftLeg -1.335062 -0.000000 0.000000
LeftFoot -1.215386 -2.355615 -4.306778
LeftToeBase 2.350284 -0.000000 -0.000000
RightUpLeg -35.771226 -10.101571 4.522884
RightLeg -1.307476 -0.000000 0.000000
RightFoot -6.734572 -5.640508 20.271425
RightToeBase 16.222042 -0.000000 -0.000000
3369
root -0.603758 32.843917 -3.482725 41.099934 1.401028 1.030538
Spine -50.127551 -18.211480 14.943148
Head 9.855767 -1.633957 -11.723900
LeftShoulder -16.636597 42.618549 4.889041
LeftArm 61.996431 32.337883 -58.482058
LeftForeArm 9.937269 0.000000 11.796079
LeftHand -19.208493 -0.000000 -6.124415
LeftHandThumb1 -26.253704 0.000000 33.147579
RightShoulder -37.779438 -27.768086 -24.214985
RightArm -239.258959 50.264464 -184.790794
RightForeArm 86.135714 0.000000 109.066312
RightHand 32.613661 -0.000000 -29.395869
RightHandThumb1 -24.326973 -0.000000 -32.862282
LeftUpLeg -34.717334 6.765531 -2.554541
LeftLeg -1.270002 -0.000000 0.000000
LeftFoot -1.273702 -2.351354 -4.238388
LeftToeBase 2.262121 -0.000000 -0.000000
RightUpLeg -35.699471 -10.098571 4.480199
RightLeg -1.249830 -0.000000 0.000000
RightFoot -6.845656 -5.734355 20.268869
RightToeBase 16.207411 -0.000000 -0.000000
